<?xml version="1.0" encoding="utf-8"?>
<svg width="456" height="456" viewBox="0 0 456 456" 
		 xmlns="http://www.w3.org/2000/svg" xmlns:xlink="http://www.w3.org/1999/xlink" xmlns:ev="http://www.w3.org/2001/xml-events">
<rect x="0" y="0" width="456" height="456" fill="#E06868"/>
<defs>
<rect id="p" width="8" height="8"/>
</defs>
<g fill="#FFFFFF">
<use xlink:href="#p" x="32" y="32"/>
<use xlink:href="#p" x="32" y="40"/>
<use xlink:href="#p" x="32" y="48"/>
<use xlink:href="#p" x="32" y="56"/>
<use xlink:href="#p" x="32" y="64"/>
<use xlink:href="#p" x="32" y="72"/>
<use xlink:href="#p" x="32" y="80"/>
<use xlink:href="#p" x="32" y="96"/>
<use xlink:href="#p" x="32" y="112"/>
<use xlink:href="#p" x="32" y="128"/>
<use xlink:href="#p" x="32" y="144"/>
<use xlink:href="#p" x="32" y="152"/>
<use xlink:href="#p" x="32" y="160"/>
<use xlink:href="#p" x="32" y="176"/>
<use xlink:href="#p" x="32" y="184"/>
<use xlink:href="#p" x="32" y="200"/>
<use xlink:href="#p" x="32" y="224"/>
<use xlink:href="#p" x="32" y="232"/>
<use xlink:href="#p" x="32" y="240"/>
<use xlink:href="#p" x="32" y="248"/>
<use xlink:href="#p" x="32" y="256"/>
<use xlink:href="#p" x="32" y="272"/>
<use xlink:href="#p" x="32" y="280"/>
<use xlink:href="#p" x="32" y="312"/>
<use xlink:href="#p" x="32" y="352"/>
<use xlink:href="#p" x="32" y="368"/>
<use xlink:href="#p" x="32" y="376"/>
<use xlink:href="#p" x="32" y="384"/>
<use xlink:href="#p" x="32" y="392"/>
<use xlink:href="#p" x="32" y="400"/>
<use xlink:href="#p" x="32" y="408"/>
<use xlink:href="#p" x="32" y="416"/>
<use xlink:href="#p" x="40" y="32"/>
<use xlink:href="#p" x="40" y="80"/>
<use xlink:href="#p" x="40" y="96"/>
<use xlink:href="#p" x="40" y="128"/>
<use xlink:href="#p" x="40" y="136"/>
<use xlink:href="#p" x="40" y="160"/>
<use xlink:href="#p" x="40" y="168"/>
<use xlink:href="#p" x="40" y="176"/>
<use xlink:href="#p" x="40" y="184"/>
<use xlink:href="#p" x="40" y="224"/>
<use xlink:href="#p" x="40" y="256"/>
<use xlink:href="#p" x="40" y="264"/>
<use xlink:href="#p" x="40" y="272"/>
<use xlink:href="#p" x="40" y="296"/>
<use xlink:href="#p" x="40" y="304"/>
<use xlink:href="#p" x="40" y="320"/>
<use xlink:href="#p" x="40" y="336"/>
<use xlink:href="#p" x="40" y="344"/>
<use xlink:href="#p" x="40" y="352"/>
<use xlink:href="#p" x="40" y="368"/>
<use xlink:href="#p" x="40" y="416"/>
<use xlink:href="#p" x="48" y="32"/>
<use xlink:href="#p" x="48" y="48"/>
<use xlink:href="#p" x="48" y="56"/>
<use xlink:href="#p" x="48" y="64"/>
<use xlink:href="#p" x="48" y="80"/>
<use xlink:href="#p" x="48" y="96"/>
<use xlink:href="#p" x="48" y="104"/>
<use xlink:href="#p" x="48" y="128"/>
<use xlink:href="#p" x="48" y="152"/>
<use xlink:href="#p" x="48" y="160"/>
<use xlink:href="#p" x="48" y="168"/>
<use xlink:href="#p" x="48" y="200"/>
<use xlink:href="#p" x="48" y="208"/>
<use xlink:href="#p" x="48" y="232"/>
<use xlink:href="#p" x="48" y="240"/>
<use xlink:href="#p" x="48" y="248"/>
<use xlink:href="#p" x="48" y="256"/>
<use xlink:href="#p" x="48" y="264"/>
<use xlink:href="#p" x="48" y="288"/>
<use xlink:href="#p" x="48" y="304"/>
<use xlink:href="#p" x="48" y="320"/>
<use xlink:href="#p" x="48" y="344"/>
<use xlink:href="#p" x="48" y="352"/>
<use xlink:href="#p" x="48" y="368"/>
<use xlink:href="#p" x="48" y="384"/>
<use xlink:href="#p" x="48" y="392"/>
<use xlink:href="#p" x="48" y="400"/>
<use xlink:href="#p" x="48" y="416"/>
<use xlink:href="#p" x="56" y="32"/>
<use xlink:href="#p" x="56" y="48"/>
<use xlink:href="#p" x="56" y="56"/>
<use xlink:href="#p" x="56" y="64"/>
<use xlink:href="#p" x="56" y="80"/>
<use xlink:href="#p" x="56" y="96"/>
<use xlink:href="#p" x="56" y="104"/>
<use xlink:href="#p" x="56" y="120"/>
<use xlink:href="#p" x="56" y="160"/>
<use xlink:href="#p" x="56" y="168"/>
<use xlink:href="#p" x="56" y="200"/>
<use xlink:href="#p" x="56" y="208"/>
<use xlink:href="#p" x="56" y="216"/>
<use xlink:href="#p" x="56" y="224"/>
<use xlink:href="#p" x="56" y="232"/>
<use xlink:href="#p" x="56" y="248"/>
<use xlink:href="#p" x="56" y="264"/>
<use xlink:href="#p" x="56" y="272"/>
<use xlink:href="#p" x="56" y="288"/>
<use xlink:href="#p" x="56" y="320"/>
<use xlink:href="#p" x="56" y="344"/>
<use xlink:href="#p" x="56" y="368"/>
<use xlink:href="#p" x="56" y="384"/>
<use xlink:href="#p" x="56" y="392"/>
<use xlink:href="#p" x="56" y="400"/>
<use xlink:href="#p" x="56" y="416"/>
<use xlink:href="#p" x="64" y="32"/>
<use xlink:href="#p" x="64" y="48"/>
<use xlink:href="#p" x="64" y="56"/>
<use xlink:href="#p" x="64" y="64"/>
<use xlink:href="#p" x="64" y="80"/>
<use xlink:href="#p" x="64" y="136"/>
<use xlink:href="#p" x="64" y="152"/>
<use xlink:href="#p" x="64" y="168"/>
<use xlink:href="#p" x="64" y="192"/>
<use xlink:href="#p" x="64" y="208"/>
<use xlink:href="#p" x="64" y="216"/>
<use xlink:href="#p" x="64" y="224"/>
<use xlink:href="#p" x="64" y="232"/>
<use xlink:href="#p" x="64" y="240"/>
<use xlink:href="#p" x="64" y="272"/>
<use xlink:href="#p" x="64" y="280"/>
<use xlink:href="#p" x="64" y="296"/>
<use xlink:href="#p" x="64" y="320"/>
<use xlink:href="#p" x="64" y="328"/>
<use xlink:href="#p" x="64" y="368"/>
<use xlink:href="#p" x="64" y="384"/>
<use xlink:href="#p" x="64" y="392"/>
<use xlink:href="#p" x="64" y="400"/>
<use xlink:href="#p" x="64" y="416"/>
<use xlink:href="#p" x="72" y="32"/>
<use xlink:href="#p" x="72" y="80"/>
<use xlink:href="#p" x="72" y="128"/>
<use xlink:href="#p" x="72" y="152"/>
<use xlink:href="#p" x="72" y="160"/>
<use xlink:href="#p" x="72" y="168"/>
<use xlink:href="#p" x="72" y="192"/>
<use xlink:href="#p" x="72" y="208"/>
<use xlink:href="#p" x="72" y="240"/>
<use xlink:href="#p" x="72" y="264"/>
<use xlink:href="#p" x="72" y="272"/>
<use xlink:href="#p" x="72" y="312"/>
<use xlink:href="#p" x="72" y="320"/>
<use xlink:href="#p" x="72" y="336"/>
<use xlink:href="#p" x="72" y="368"/>
<use xlink:href="#p" x="72" y="416"/>
<use xlink:href="#p" x="80" y="32"/>
<use xlink:href="#p" x="80" y="40"/>
<use xlink:href="#p" x="80" y="48"/>
<use xlink:href="#p" x="80" y="56"/>
<use xlink:href="#p" x="80" y="64"/>
<use xlink:href="#p" x="80" y="72"/>
<use xlink:href="#p" x="80" y="80"/>
<use xlink:href="#p" x="80" y="96"/>
<use xlink:href="#p" x="80" y="112"/>
<use xlink:href="#p" x="80" y="128"/>
<use xlink:href="#p" x="80" y="144"/>
<use xlink:href="#p" x="80" y="160"/>
<use xlink:href="#p" x="80" y="176"/>
<use xlink:href="#p" x="80" y="192"/>
<use xlink:href="#p" x="80" y="208"/>
<use xlink:href="#p" x="80" y="224"/>
<use xlink:href="#p" x="80" y="240"/>
<use xlink:href="#p" x="80" y="256"/>
<use xlink:href="#p" x="80" y="272"/>
<use xlink:href="#p" x="80" y="288"/>
<use xlink:href="#p" x="80" y="304"/>
<use xlink:href="#p" x="80" y="320"/>
<use xlink:href="#p" x="80" y="336"/>
<use xlink:href="#p" x="80" y="352"/>
<use xlink:href="#p" x="80" y="368"/>
<use xlink:href="#p" x="80" y="376"/>
<use xlink:href="#p" x="80" y="384"/>
<use xlink:href="#p" x="80" y="392"/>
<use xlink:href="#p" x="80" y="400"/>
<use xlink:href="#p" x="80" y="408"/>
<use xlink:href="#p" x="80" y="416"/>
<use xlink:href="#p" x="88" y="104"/>
<use xlink:href="#p" x="88" y="120"/>
<use xlink:href="#p" x="88" y="128"/>
<use xlink:href="#p" x="88" y="168"/>
<use xlink:href="#p" x="88" y="200"/>
<use xlink:href="#p" x="88" y="208"/>
<use xlink:href="#p" x="88" y="240"/>
<use xlink:href="#p" x="88" y="256"/>
<use xlink:href="#p" x="88" y="272"/>
<use xlink:href="#p" x="88" y="280"/>
<use xlink:href="#p" x="88" y="288"/>
<use xlink:href="#p" x="88" y="296"/>
<use xlink:href="#p" x="88" y="304"/>
<use xlink:href="#p" x="88" y="328"/>
<use xlink:href="#p" x="88" y="352"/>
<use xlink:href="#p" x="96" y="32"/>
<use xlink:href="#p" x="96" y="48"/>
<use xlink:href="#p" x="96" y="56"/>
<use xlink:href="#p" x="96" y="64"/>
<use xlink:href="#p" x="96" y="80"/>
<use xlink:href="#p" x="96" y="96"/>
<use xlink:href="#p" x="96" y="128"/>
<use xlink:href="#p" x="96" y="208"/>
<use xlink:href="#p" x="96" y="216"/>
<use xlink:href="#p" x="96" y="224"/>
<use xlink:href="#p" x="96" y="232"/>
<use xlink:href="#p" x="96" y="240"/>
<use xlink:href="#p" x="96" y="248"/>
<use xlink:href="#p" x="96" y="280"/>
<use xlink:href="#p" x="96" y="296"/>
<use xlink:href="#p" x="96" y="320"/>
<use xlink:href="#p" x="96" y="328"/>
<use xlink:href="#p" x="96" y="344"/>
<use xlink:href="#p" x="96" y="360"/>
<use xlink:href="#p" x="96" y="392"/>
<use xlink:href="#p" x="96" y="400"/>
<use xlink:href="#p" x="96" y="408"/>
<use xlink:href="#p" x="96" y="416"/>
<use xlink:href="#p" x="104" y="40"/>
<use xlink:href="#p" x="104" y="48"/>
<use xlink:href="#p" x="104" y="56"/>
<use xlink:href="#p" x="104" y="72"/>
<use xlink:href="#p" x="104" y="96"/>
<use xlink:href="#p" x="104" y="112"/>
<use xlink:href="#p" x="104" y="120"/>
<use xlink:href="#p" x="104" y="144"/>
<use xlink:href="#p" x="104" y="152"/>
<use xlink:href="#p" x="104" y="168"/>
<use xlink:href="#p" x="104" y="192"/>
<use xlink:href="#p" x="104" y="200"/>
<use xlink:href="#p" x="104" y="216"/>
<use xlink:href="#p" x="104" y="232"/>
<use xlink:href="#p" x="104" y="256"/>
<use xlink:href="#p" x="104" y="280"/>
<use xlink:href="#p" x="104" y="288"/>
<use xlink:href="#p" x="104" y="296"/>
<use xlink:href="#p" x="104" y="312"/>
<use xlink:href="#p" x="104" y="328"/>
<use xlink:href="#p" x="104" y="368"/>
<use xlink:href="#p" x="104" y="400"/>
<use xlink:href="#p" x="112" y="72"/>
<use xlink:href="#p" x="112" y="80"/>
<use xlink:href="#p" x="112" y="96"/>
<use xlink:href="#p" x="112" y="120"/>
<use xlink:href="#p" x="112" y="136"/>
<use xlink:href="#p" x="112" y="168"/>
<use xlink:href="#p" x="112" y="176"/>
<use xlink:href="#p" x="112" y="184"/>
<use xlink:href="#p" x="112" y="192"/>
<use xlink:href="#p" x="112" y="200"/>
<use xlink:href="#p" x="112" y="208"/>
<use xlink:href="#p" x="112" y="224"/>
<use xlink:href="#p" x="112" y="232"/>
<use xlink:href="#p" x="112" y="240"/>
<use xlink:href="#p" x="112" y="264"/>
<use xlink:href="#p" x="112" y="288"/>
<use xlink:href="#p" x="112" y="296"/>
<use xlink:href="#p" x="112" y="312"/>
<use xlink:href="#p" x="112" y="320"/>
<use xlink:href="#p" x="112" y="336"/>
<use xlink:href="#p" x="112" y="344"/>
<use xlink:href="#p" x="112" y="352"/>
<use xlink:href="#p" x="112" y="360"/>
<use xlink:href="#p" x="112" y="376"/>
<use xlink:href="#p" x="112" y="392"/>
<use xlink:href="#p" x="112" y="400"/>
<use xlink:href="#p" x="112" y="408"/>
<use xlink:href="#p" x="120" y="64"/>
<use xlink:href="#p" x="120" y="72"/>
<use xlink:href="#p" x="120" y="88"/>
<use xlink:href="#p" x="120" y="104"/>
<use xlink:href="#p" x="120" y="136"/>
<use xlink:href="#p" x="120" y="152"/>
<use xlink:href="#p" x="120" y="160"/>
<use xlink:href="#p" x="120" y="176"/>
<use xlink:href="#p" x="120" y="192"/>
<use xlink:href="#p" x="120" y="208"/>
<use xlink:href="#p" x="120" y="224"/>
<use xlink:href="#p" x="120" y="232"/>
<use xlink:href="#p" x="120" y="248"/>
<use xlink:href="#p" x="120" y="256"/>
<use xlink:href="#p" x="120" y="272"/>
<use xlink:href="#p" x="120" y="280"/>
<use xlink:href="#p" x="120" y="320"/>
<use xlink:href="#p" x="120" y="328"/>
<use xlink:href="#p" x="120" y="336"/>
<use xlink:href="#p" x="120" y="392"/>
<use xlink:href="#p" x="120" y="400"/>
<use xlink:href="#p" x="120" y="408"/>
<use xlink:href="#p" x="128" y="40"/>
<use xlink:href="#p" x="128" y="48"/>
<use xlink:href="#p" x="128" y="56"/>
<use xlink:href="#p" x="128" y="64"/>
<use xlink:href="#p" x="128" y="80"/>
<use xlink:href="#p" x="128" y="112"/>
<use xlink:href="#p" x="128" y="144"/>
<use xlink:href="#p" x="128" y="152"/>
<use xlink:href="#p" x="128" y="192"/>
<use xlink:href="#p" x="128" y="200"/>
<use xlink:href="#p" x="128" y="208"/>
<use xlink:href="#p" x="128" y="216"/>
<use xlink:href="#p" x="128" y="224"/>
<use xlink:href="#p" x="128" y="248"/>
<use xlink:href="#p" x="128" y="256"/>
<use xlink:href="#p" x="128" y="272"/>
<use xlink:href="#p" x="128" y="280"/>
<use xlink:href="#p" x="128" y="288"/>
<use xlink:href="#p" x="128" y="312"/>
<use xlink:href="#p" x="128" y="320"/>
<use xlink:href="#p" x="128" y="344"/>
<use xlink:href="#p" x="128" y="352"/>
<use xlink:href="#p" x="128" y="368"/>
<use xlink:href="#p" x="128" y="376"/>
<use xlink:href="#p" x="128" y="400"/>
<use xlink:href="#p" x="128" y="408"/>
<use xlink:href="#p" x="128" y="416"/>
<use xlink:href="#p" x="136" y="40"/>
<use xlink:href="#p" x="136" y="48"/>
<use xlink:href="#p" x="136" y="56"/>
<use xlink:href="#p" x="136" y="72"/>
<use xlink:href="#p" x="136" y="88"/>
<use xlink:href="#p" x="136" y="136"/>
<use xlink:href="#p" x="136" y="152"/>
<use xlink:href="#p" x="136" y="168"/>
<use xlink:href="#p" x="136" y="176"/>
<use xlink:href="#p" x="136" y="208"/>
<use xlink:href="#p" x="136" y="240"/>
<use xlink:href="#p" x="136" y="248"/>
<use xlink:href="#p" x="136" y="296"/>
<use xlink:href="#p" x="136" y="304"/>
<use xlink:href="#p" x="136" y="312"/>
<use xlink:href="#p" x="136" y="320"/>
<use xlink:href="#p" x="136" y="352"/>
<use xlink:href="#p" x="136" y="360"/>
<use xlink:href="#p" x="136" y="376"/>
<use xlink:href="#p" x="136" y="384"/>
<use xlink:href="#p" x="136" y="392"/>
<use xlink:href="#p" x="136" y="400"/>
<use xlink:href="#p" x="136" y="416"/>
<use xlink:href="#p" x="144" y="32"/>
<use xlink:href="#p" x="144" y="48"/>
<use xlink:href="#p" x="144" y="56"/>
<use xlink:href="#p" x="144" y="64"/>
<use xlink:href="#p" x="144" y="72"/>
<use xlink:href="#p" x="144" y="80"/>
<use xlink:href="#p" x="144" y="88"/>
<use xlink:href="#p" x="144" y="104"/>
<use xlink:href="#p" x="144" y="112"/>
<use xlink:href="#p" x="144" y="136"/>
<use xlink:href="#p" x="144" y="144"/>
<use xlink:href="#p" x="144" y="152"/>
<use xlink:href="#p" x="144" y="160"/>
<use xlink:href="#p" x="144" y="176"/>
<use xlink:href="#p" x="144" y="192"/>
<use xlink:href="#p" x="144" y="232"/>
<use xlink:href="#p" x="144" y="256"/>
<use xlink:href="#p" x="144" y="272"/>
<use xlink:href="#p" x="144" y="312"/>
<use xlink:href="#p" x="144" y="320"/>
<use xlink:href="#p" x="144" y="328"/>
<use xlink:href="#p" x="144" y="352"/>
<use xlink:href="#p" x="144" y="376"/>
<use xlink:href="#p" x="144" y="400"/>
<use xlink:href="#p" x="152" y="48"/>
<use xlink:href="#p" x="152" y="72"/>
<use xlink:href="#p" x="152" y="104"/>
<use xlink:href="#p" x="152" y="128"/>
<use xlink:href="#p" x="152" y="136"/>
<use xlink:href="#p" x="152" y="168"/>
<use xlink:href="#p" x="152" y="184"/>
<use xlink:href="#p" x="152" y="192"/>
<use xlink:href="#p" x="152" y="200"/>
<use xlink:href="#p" x="152" y="208"/>
<use xlink:href="#p" x="152" y="232"/>
<use xlink:href="#p" x="152" y="248"/>
<use xlink:href="#p" x="152" y="264"/>
<use xlink:href="#p" x="152" y="272"/>
<use xlink:href="#p" x="152" y="280"/>
<use xlink:href="#p" x="152" y="312"/>
<use xlink:href="#p" x="152" y="336"/>
<use xlink:href="#p" x="152" y="344"/>
<use xlink:href="#p" x="152" y="352"/>
<use xlink:href="#p" x="152" y="360"/>
<use xlink:href="#p" x="152" y="408"/>
<use xlink:href="#p" x="152" y="416"/>
<use xlink:href="#p" x="160" y="40"/>
<use xlink:href="#p" x="160" y="72"/>
<use xlink:href="#p" x="160" y="80"/>
<use xlink:href="#p" x="160" y="112"/>
<use xlink:href="#p" x="160" y="120"/>
<use xlink:href="#p" x="160" y="136"/>
<use xlink:href="#p" x="160" y="152"/>
<use xlink:href="#p" x="160" y="160"/>
<use xlink:href="#p" x="160" y="168"/>
<use xlink:href="#p" x="160" y="192"/>
<use xlink:href="#p" x="160" y="216"/>
<use xlink:href="#p" x="160" y="224"/>
<use xlink:href="#p" x="160" y="240"/>
<use xlink:href="#p" x="160" y="248"/>
<use xlink:href="#p" x="160" y="272"/>
<use xlink:href="#p" x="160" y="280"/>
<use xlink:href="#p" x="160" y="312"/>
<use xlink:href="#p" x="160" y="336"/>
<use xlink:href="#p" x="160" y="352"/>
<use xlink:href="#p" x="160" y="360"/>
<use xlink:href="#p" x="160" y="376"/>
<use xlink:href="#p" x="160" y="384"/>
<use xlink:href="#p" x="160" y="392"/>
<use xlink:href="#p" x="160" y="400"/>
<use xlink:href="#p" x="160" y="416"/>
<use xlink:href="#p" x="168" y="56"/>
<use xlink:href="#p" x="168" y="64"/>
<use xlink:href="#p" x="168" y="72"/>
<use xlink:href="#p" x="168" y="88"/>
<use xlink:href="#p" x="168" y="112"/>
<use xlink:href="#p" x="168" y="120"/>
<use xlink:href="#p" x="168" y="144"/>
<use xlink:href="#p" x="168" y="152"/>
<use xlink:href="#p" x="168" y="176"/>
<use xlink:href="#p" x="168" y="184"/>
<use xlink:href="#p" x="168" y="192"/>
<use xlink:href="#p" x="168" y="208"/>
<use xlink:href="#p" x="168" y="216"/>
<use xlink:href="#p" x="168" y="224"/>
<use xlink:href="#p" x="168" y="232"/>
<use xlink:href="#p" x="168" y="248"/>
<use xlink:href="#p" x="168" y="256"/>
<use xlink:href="#p" x="168" y="264"/>
<use xlink:href="#p" x="168" y="272"/>
<use xlink:href="#p" x="168" y="320"/>
<use xlink:href="#p" x="168" y="328"/>
<use xlink:href="#p" x="168" y="336"/>
<use xlink:href="#p" x="168" y="392"/>
<use xlink:href="#p" x="168" y="408"/>
<use xlink:href="#p" x="168" y="416"/>
<use xlink:href="#p" x="176" y="40"/>
<use xlink:href="#p" x="176" y="48"/>
<use xlink:href="#p" x="176" y="72"/>
<use xlink:href="#p" x="176" y="80"/>
<use xlink:href="#p" x="176" y="88"/>
<use xlink:href="#p" x="176" y="128"/>
<use xlink:href="#p" x="176" y="144"/>
<use xlink:href="#p" x="176" y="152"/>
<use xlink:href="#p" x="176" y="168"/>
<use xlink:href="#p" x="176" y="184"/>
<use xlink:href="#p" x="176" y="192"/>
<use xlink:href="#p" x="176" y="200"/>
<use xlink:href="#p" x="176" y="208"/>
<use xlink:href="#p" x="176" y="224"/>
<use xlink:href="#p" x="176" y="232"/>
<use xlink:href="#p" x="176" y="248"/>
<use xlink:href="#p" x="176" y="280"/>
<use xlink:href="#p" x="176" y="304"/>
<use xlink:href="#p" x="176" y="312"/>
<use xlink:href="#p" x="176" y="336"/>
<use xlink:href="#p" x="176" y="360"/>
<use xlink:href="#p" x="176" y="368"/>
<use xlink:href="#p" x="176" y="392"/>
<use xlink:href="#p" x="176" y="408"/>
<use xlink:href="#p" x="176" y="416"/>
<use xlink:href="#p" x="184" y="32"/>
<use xlink:href="#p" x="184" y="40"/>
<use xlink:href="#p" x="184" y="48"/>
<use xlink:href="#p" x="184" y="56"/>
<use xlink:href="#p" x="184" y="96"/>
<use xlink:href="#p" x="184" y="104"/>
<use xlink:href="#p" x="184" y="112"/>
<use xlink:href="#p" x="184" y="120"/>
<use xlink:href="#p" x="184" y="136"/>
<use xlink:href="#p" x="184" y="144"/>
<use xlink:href="#p" x="184" y="152"/>
<use xlink:href="#p" x="184" y="192"/>
<use xlink:href="#p" x="184" y="224"/>
<use xlink:href="#p" x="184" y="232"/>
<use xlink:href="#p" x="184" y="240"/>
<use xlink:href="#p" x="184" y="304"/>
<use xlink:href="#p" x="184" y="312"/>
<use xlink:href="#p" x="184" y="320"/>
<use xlink:href="#p" x="184" y="328"/>
<use xlink:href="#p" x="184" y="384"/>
<use xlink:href="#p" x="184" y="392"/>
<use xlink:href="#p" x="184" y="400"/>
<use xlink:href="#p" x="184" y="408"/>
<use xlink:href="#p" x="184" y="416"/>
<use xlink:href="#p" x="192" y="40"/>
<use xlink:href="#p" x="192" y="64"/>
<use xlink:href="#p" x="192" y="80"/>
<use xlink:href="#p" x="192" y="88"/>
<use xlink:href="#p" x="192" y="96"/>
<use xlink:href="#p" x="192" y="112"/>
<use xlink:href="#p" x="192" y="120"/>
<use xlink:href="#p" x="192" y="144"/>
<use xlink:href="#p" x="192" y="152"/>
<use xlink:href="#p" x="192" y="176"/>
<use xlink:href="#p" x="192" y="184"/>
<use xlink:href="#p" x="192" y="208"/>
<use xlink:href="#p" x="192" y="224"/>
<use xlink:href="#p" x="192" y="232"/>
<use xlink:href="#p" x="192" y="240"/>
<use xlink:href="#p" x="192" y="248"/>
<use xlink:href="#p" x="192" y="256"/>
<use xlink:href="#p" x="192" y="272"/>
<use xlink:href="#p" x="192" y="280"/>
<use xlink:href="#p" x="192" y="288"/>
<use xlink:href="#p" x="192" y="312"/>
<use xlink:href="#p" x="192" y="328"/>
<use xlink:href="#p" x="192" y="352"/>
<use xlink:href="#p" x="192" y="368"/>
<use xlink:href="#p" x="192" y="376"/>
<use xlink:href="#p" x="200" y="40"/>
<use xlink:href="#p" x="200" y="48"/>
<use xlink:href="#p" x="200" y="72"/>
<use xlink:href="#p" x="200" y="104"/>
<use xlink:href="#p" x="200" y="120"/>
<use xlink:href="#p" x="200" y="128"/>
<use xlink:href="#p" x="200" y="136"/>
<use xlink:href="#p" x="200" y="168"/>
<use xlink:href="#p" x="200" y="176"/>
<use xlink:href="#p" x="200" y="192"/>
<use xlink:href="#p" x="200" y="224"/>
<use xlink:href="#p" x="200" y="240"/>
<use xlink:href="#p" x="200" y="256"/>
<use xlink:href="#p" x="200" y="272"/>
<use xlink:href="#p" x="200" y="280"/>
<use xlink:href="#p" x="200" y="288"/>
<use xlink:href="#p" x="200" y="296"/>
<use xlink:href="#p" x="200" y="344"/>
<use xlink:href="#p" x="200" y="352"/>
<use xlink:href="#p" x="200" y="360"/>
<use xlink:href="#p" x="200" y="368"/>
<use xlink:href="#p" x="200" y="384"/>
<use xlink:href="#p" x="200" y="392"/>
<use xlink:href="#p" x="200" y="400"/>
<use xlink:href="#p" x="200" y="408"/>
<use xlink:href="#p" x="208" y="48"/>
<use xlink:href="#p" x="208" y="64"/>
<use xlink:href="#p" x="208" y="72"/>
<use xlink:href="#p" x="208" y="80"/>
<use xlink:href="#p" x="208" y="88"/>
<use xlink:href="#p" x="208" y="96"/>
<use xlink:href="#p" x="208" y="112"/>
<use xlink:href="#p" x="208" y="120"/>
<use xlink:href="#p" x="208" y="136"/>
<use xlink:href="#p" x="208" y="208"/>
<use xlink:href="#p" x="208" y="216"/>
<use xlink:href="#p" x="208" y="224"/>
<use xlink:href="#p" x="208" y="232"/>
<use xlink:href="#p" x="208" y="240"/>
<use xlink:href="#p" x="208" y="248"/>
<use xlink:href="#p" x="208" y="272"/>
<use xlink:href="#p" x="208" y="280"/>
<use xlink:href="#p" x="208" y="288"/>
<use xlink:href="#p" x="208" y="304"/>
<use xlink:href="#p" x="208" y="320"/>
<use xlink:href="#p" x="208" y="328"/>
<use xlink:href="#p" x="208" y="352"/>
<use xlink:href="#p" x="208" y="360"/>
<use xlink:href="#p" x="208" y="368"/>
<use xlink:href="#p" x="208" y="376"/>
<use xlink:href="#p" x="208" y="384"/>
<use xlink:href="#p" x="208" y="400"/>
<use xlink:href="#p" x="216" y="32"/>
<use xlink:href="#p" x="216" y="56"/>
<use xlink:href="#p" x="216" y="64"/>
<use xlink:href="#p" x="216" y="96"/>
<use xlink:href="#p" x="216" y="112"/>
<use xlink:href="#p" x="216" y="120"/>
<use xlink:href="#p" x="216" y="128"/>
<use xlink:href="#p" x="216" y="136"/>
<use xlink:href="#p" x="216" y="160"/>
<use xlink:href="#p" x="216" y="168"/>
<use xlink:href="#p" x="216" y="176"/>
<use xlink:href="#p" x="216" y="184"/>
<use xlink:href="#p" x="216" y="200"/>
<use xlink:href="#p" x="216" y="208"/>
<use xlink:href="#p" x="216" y="240"/>
<use xlink:href="#p" x="216" y="248"/>
<use xlink:href="#p" x="216" y="256"/>
<use xlink:href="#p" x="216" y="272"/>
<use xlink:href="#p" x="216" y="336"/>
<use xlink:href="#p" x="216" y="344"/>
<use xlink:href="#p" x="216" y="352"/>
<use xlink:href="#p" x="216" y="384"/>
<use xlink:href="#p" x="224" y="32"/>
<use xlink:href="#p" x="224" y="56"/>
<use xlink:href="#p" x="224" y="64"/>
<use xlink:href="#p" x="224" y="80"/>
<use xlink:href="#p" x="224" y="96"/>
<use xlink:href="#p" x="224" y="112"/>
<use xlink:href="#p" x="224" y="128"/>
<use xlink:href="#p" x="224" y="136"/>
<use xlink:href="#p" x="224" y="144"/>
<use xlink:href="#p" x="224" y="152"/>
<use xlink:href="#p" x="224" y="200"/>
<use xlink:href="#p" x="224" y="208"/>
<use xlink:href="#p" x="224" y="224"/>
<use xlink:href="#p" x="224" y="240"/>
<use xlink:href="#p" x="224" y="272"/>
<use xlink:href="#p" x="224" y="280"/>
<use xlink:href="#p" x="224" y="296"/>
<use xlink:href="#p" x="224" y="336"/>
<use xlink:href="#p" x="224" y="352"/>
<use xlink:href="#p" x="224" y="368"/>
<use xlink:href="#p" x="224" y="384"/>
<use xlink:href="#p" x="224" y="408"/>
<use xlink:href="#p" x="224" y="416"/>
<use xlink:href="#p" x="232" y="32"/>
<use xlink:href="#p" x="232" y="48"/>
<use xlink:href="#p" x="232" y="56"/>
<use xlink:href="#p" x="232" y="64"/>
<use xlink:href="#p" x="232" y="96"/>
<use xlink:href="#p" x="232" y="104"/>
<use xlink:href="#p" x="232" y="112"/>
<use xlink:href="#p" x="232" y="120"/>
<use xlink:href="#p" x="232" y="128"/>
<use xlink:href="#p" x="232" y="136"/>
<use xlink:href="#p" x="232" y="144"/>
<use xlink:href="#p" x="232" y="152"/>
<use xlink:href="#p" x="232" y="184"/>
<use xlink:href="#p" x="232" y="192"/>
<use xlink:href="#p" x="232" y="208"/>
<use xlink:href="#p" x="232" y="240"/>
<use xlink:href="#p" x="232" y="256"/>
<use xlink:href="#p" x="232" y="272"/>
<use xlink:href="#p" x="232" y="304"/>
<use xlink:href="#p" x="232" y="312"/>
<use xlink:href="#p" x="232" y="328"/>
<use xlink:href="#p" x="232" y="344"/>
<use xlink:href="#p" x="232" y="352"/>
<use xlink:href="#p" x="232" y="384"/>
<use xlink:href="#p" x="232" y="400"/>
<use xlink:href="#p" x="240" y="48"/>
<use xlink:href="#p" x="240" y="64"/>
<use xlink:href="#p" x="240" y="72"/>
<use xlink:href="#p" x="240" y="80"/>
<use xlink:href="#p" x="240" y="88"/>
<use xlink:href="#p" x="240" y="96"/>
<use xlink:href="#p" x="240" y="120"/>
<use xlink:href="#p" x="240" y="136"/>
<use xlink:href="#p" x="240" y="144"/>
<use xlink:href="#p" x="240" y="176"/>
<use xlink:href="#p" x="240" y="208"/>
<use xlink:href="#p" x="240" y="216"/>
<use xlink:href="#p" x="240" y="224"/>
<use xlink:href="#p" x="240" y="232"/>
<use xlink:href="#p" x="240" y="240"/>
<use xlink:href="#p" x="240" y="248"/>
<use xlink:href="#p" x="240" y="256"/>
<use xlink:href="#p" x="240" y="288"/>
<use xlink:href="#p" x="240" y="296"/>
<use xlink:href="#p" x="240" y="304"/>
<use xlink:href="#p" x="240" y="312"/>
<use xlink:href="#p" x="240" y="320"/>
<use xlink:href="#p" x="240" y="328"/>
<use xlink:href="#p" x="240" y="344"/>
<use xlink:href="#p" x="240" y="352"/>
<use xlink:href="#p" x="240" y="360"/>
<use xlink:href="#p" x="240" y="368"/>
<use xlink:href="#p" x="240" y="376"/>
<use xlink:href="#p" x="240" y="384"/>
<use xlink:href="#p" x="240" y="416"/>
<use xlink:href="#p" x="248" y="72"/>
<use xlink:href="#p" x="248" y="96"/>
<use xlink:href="#p" x="248" y="112"/>
<use xlink:href="#p" x="248" y="136"/>
<use xlink:href="#p" x="248" y="144"/>
<use xlink:href="#p" x="248" y="152"/>
<use xlink:href="#p" x="248" y="160"/>
<use xlink:href="#p" x="248" y="168"/>
<use xlink:href="#p" x="248" y="192"/>
<use xlink:href="#p" x="248" y="200"/>
<use xlink:href="#p" x="248" y="248"/>
<use xlink:href="#p" x="248" y="288"/>
<use xlink:href="#p" x="248" y="296"/>
<use xlink:href="#p" x="248" y="328"/>
<use xlink:href="#p" x="248" y="352"/>
<use xlink:href="#p" x="248" y="368"/>
<use xlink:href="#p" x="248" y="384"/>
<use xlink:href="#p" x="256" y="80"/>
<use xlink:href="#p" x="256" y="88"/>
<use xlink:href="#p" x="256" y="96"/>
<use xlink:href="#p" x="256" y="112"/>
<use xlink:href="#p" x="256" y="136"/>
<use xlink:href="#p" x="256" y="152"/>
<use xlink:href="#p" x="256" y="192"/>
<use xlink:href="#p" x="256" y="240"/>
<use xlink:href="#p" x="256" y="248"/>
<use xlink:href="#p" x="256" y="272"/>
<use xlink:href="#p" x="256" y="288"/>
<use xlink:href="#p" x="256" y="336"/>
<use xlink:href="#p" x="256" y="344"/>
<use xlink:href="#p" x="256" y="360"/>
<use xlink:href="#p" x="256" y="368"/>
<use xlink:href="#p" x="256" y="376"/>
<use xlink:href="#p" x="256" y="384"/>
<use xlink:href="#p" x="256" y="400"/>
<use xlink:href="#p" x="264" y="48"/>
<use xlink:href="#p" x="264" y="56"/>
<use xlink:href="#p" x="264" y="64"/>
<use xlink:href="#p" x="264" y="88"/>
<use xlink:href="#p" x="264" y="104"/>
<use xlink:href="#p" x="264" y="160"/>
<use xlink:href="#p" x="264" y="168"/>
<use xlink:href="#p" x="264" y="200"/>
<use xlink:href="#p" x="264" y="208"/>
<use xlink:href="#p" x="264" y="224"/>
<use xlink:href="#p" x="264" y="248"/>
<use xlink:href="#p" x="264" y="256"/>
<use xlink:href="#p" x="264" y="272"/>
<use xlink:href="#p" x="264" y="280"/>
<use xlink:href="#p" x="264" y="288"/>
<use xlink:href="#p" x="264" y="296"/>
<use xlink:href="#p" x="264" y="304"/>
<use xlink:href="#p" x="264" y="336"/>
<use xlink:href="#p" x="264" y="344"/>
<use xlink:href="#p" x="264" y="352"/>
<use xlink:href="#p" x="264" y="376"/>
<use xlink:href="#p" x="264" y="392"/>
<use xlink:href="#p" x="264" y="400"/>
<use xlink:href="#p" x="264" y="408"/>
<use xlink:href="#p" x="272" y="32"/>
<use xlink:href="#p" x="272" y="40"/>
<use xlink:href="#p" x="272" y="48"/>
<use xlink:href="#p" x="272" y="56"/>
<use xlink:href="#p" x="272" y="80"/>
<use xlink:href="#p" x="272" y="88"/>
<use xlink:href="#p" x="272" y="96"/>
<use xlink:href="#p" x="272" y="104"/>
<use xlink:href="#p" x="272" y="112"/>
<use xlink:href="#p" x="272" y="120"/>
<use xlink:href="#p" x="272" y="152"/>
<use xlink:href="#p" x="272" y="160"/>
<use xlink:href="#p" x="272" y="192"/>
<use xlink:href="#p" x="272" y="200"/>
<use xlink:href="#p" x="272" y="216"/>
<use xlink:href="#p" x="272" y="224"/>
<use xlink:href="#p" x="272" y="240"/>
<use xlink:href="#p" x="272" y="256"/>
<use xlink:href="#p" x="272" y="296"/>
<use xlink:href="#p" x="272" y="304"/>
<use xlink:href="#p" x="272" y="312"/>
<use xlink:href="#p" x="272" y="352"/>
<use xlink:href="#p" x="272" y="384"/>
<use xlink:href="#p" x="272" y="392"/>
<use xlink:href="#p" x="272" y="400"/>
<use xlink:href="#p" x="272" y="408"/>
<use xlink:href="#p" x="280" y="40"/>
<use xlink:href="#p" x="280" y="48"/>
<use xlink:href="#p" x="280" y="64"/>
<use xlink:href="#p" x="280" y="72"/>
<use xlink:href="#p" x="280" y="88"/>
<use xlink:href="#p" x="280" y="104"/>
<use xlink:href="#p" x="280" y="112"/>
<use xlink:href="#p" x="280" y="136"/>
<use xlink:href="#p" x="280" y="144"/>
<use xlink:href="#p" x="280" y="160"/>
<use xlink:href="#p" x="280" y="168"/>
<use xlink:href="#p" x="280" y="176"/>
<use xlink:href="#p" x="280" y="184"/>
<use xlink:href="#p" x="280" y="192"/>
<use xlink:href="#p" x="280" y="200"/>
<use xlink:href="#p" x="280" y="216"/>
<use xlink:href="#p" x="280" y="224"/>
<use xlink:href="#p" x="280" y="240"/>
<use xlink:href="#p" x="280" y="248"/>
<use xlink:href="#p" x="280" y="264"/>
<use xlink:href="#p" x="280" y="272"/>
<use xlink:href="#p" x="280" y="280"/>
<use xlink:href="#p" x="280" y="296"/>
<use xlink:href="#p" x="280" y="304"/>
<use xlink:href="#p" x="280" y="312"/>
<use xlink:href="#p" x="280" y="320"/>
<use xlink:href="#p" x="280" y="328"/>
<use xlink:href="#p" x="280" y="336"/>
<use xlink:href="#p" x="280" y="352"/>
<use xlink:href="#p" x="280" y="360"/>
<use xlink:href="#p" x="280" y="368"/>
<use xlink:href="#p" x="280" y="392"/>
<use xlink:href="#p" x="280" y="416"/>
<use xlink:href="#p" x="288" y="40"/>
<use xlink:href="#p" x="288" y="72"/>
<use xlink:href="#p" x="288" y="80"/>
<use xlink:href="#p" x="288" y="88"/>
<use xlink:href="#p" x="288" y="112"/>
<use xlink:href="#p" x="288" y="120"/>
<use xlink:href="#p" x="288" y="144"/>
<use xlink:href="#p" x="288" y="160"/>
<use xlink:href="#p" x="288" y="168"/>
<use xlink:href="#p" x="288" y="176"/>
<use xlink:href="#p" x="288" y="200"/>
<use xlink:href="#p" x="288" y="248"/>
<use xlink:href="#p" x="288" y="256"/>
<use xlink:href="#p" x="288" y="264"/>
<use xlink:href="#p" x="288" y="272"/>
<use xlink:href="#p" x="288" y="280"/>
<use xlink:href="#p" x="288" y="304"/>
<use xlink:href="#p" x="288" y="312"/>
<use xlink:href="#p" x="288" y="328"/>
<use xlink:href="#p" x="288" y="352"/>
<use xlink:href="#p" x="296" y="48"/>
<use xlink:href="#p" x="296" y="64"/>
<use xlink:href="#p" x="296" y="96"/>
<use xlink:href="#p" x="296" y="136"/>
<use xlink:href="#p" x="296" y="144"/>
<use xlink:href="#p" x="296" y="152"/>
<use xlink:href="#p" x="296" y="160"/>
<use xlink:href="#p" x="296" y="168"/>
<use xlink:href="#p" x="296" y="176"/>
<use xlink:href="#p" x="296" y="216"/>
<use xlink:href="#p" x="296" y="224"/>
<use xlink:href="#p" x="296" y="240"/>
<use xlink:href="#p" x="296" y="248"/>
<use xlink:href="#p" x="296" y="256"/>
<use xlink:href="#p" x="296" y="288"/>
<use xlink:href="#p" x="296" y="328"/>
<use xlink:href="#p" x="296" y="336"/>
<use xlink:href="#p" x="296" y="344"/>
<use xlink:href="#p" x="296" y="352"/>
<use xlink:href="#p" x="296" y="360"/>
<use xlink:href="#p" x="296" y="368"/>
<use xlink:href="#p" x="296" y="408"/>
<use xlink:href="#p" x="296" y="416"/>
<use xlink:href="#p" x="304" y="48"/>
<use xlink:href="#p" x="304" y="80"/>
<use xlink:href="#p" x="304" y="96"/>
<use xlink:href="#p" x="304" y="152"/>
<use xlink:href="#p" x="304" y="168"/>
<use xlink:href="#p" x="304" y="208"/>
<use xlink:href="#p" x="304" y="264"/>
<use xlink:href="#p" x="304" y="272"/>
<use xlink:href="#p" x="304" y="280"/>
<use xlink:href="#p" x="304" y="320"/>
<use xlink:href="#p" x="304" y="336"/>
<use xlink:href="#p" x="304" y="344"/>
<use xlink:href="#p" x="304" y="360"/>
<use xlink:href="#p" x="304" y="400"/>
<use xlink:href="#p" x="304" y="416"/>
<use xlink:href="#p" x="312" y="32"/>
<use xlink:href="#p" x="312" y="56"/>
<use xlink:href="#p" x="312" y="64"/>
<use xlink:href="#p" x="312" y="72"/>
<use xlink:href="#p" x="312" y="88"/>
<use xlink:href="#p" x="312" y="96"/>
<use xlink:href="#p" x="312" y="104"/>
<use xlink:href="#p" x="312" y="120"/>
<use xlink:href="#p" x="312" y="128"/>
<use xlink:href="#p" x="312" y="184"/>
<use xlink:href="#p" x="312" y="192"/>
<use xlink:href="#p" x="312" y="240"/>
<use xlink:href="#p" x="312" y="264"/>
<use xlink:href="#p" x="312" y="272"/>
<use xlink:href="#p" x="312" y="280"/>
<use xlink:href="#p" x="312" y="296"/>
<use xlink:href="#p" x="312" y="320"/>
<use xlink:href="#p" x="312" y="328"/>
<use xlink:href="#p" x="312" y="344"/>
<use xlink:href="#p" x="312" y="352"/>
<use xlink:href="#p" x="312" y="360"/>
<use xlink:href="#p" x="312" y="408"/>
<use xlink:href="#p" x="320" y="32"/>
<use xlink:href="#p" x="320" y="40"/>
<use xlink:href="#p" x="320" y="48"/>
<use xlink:href="#p" x="320" y="56"/>
<use xlink:href="#p" x="320" y="64"/>
<use xlink:href="#p" x="320" y="80"/>
<use xlink:href="#p" x="320" y="104"/>
<use xlink:href="#p" x="320" y="120"/>
<use xlink:href="#p" x="320" y="128"/>
<use xlink:href="#p" x="320" y="144"/>
<use xlink:href="#p" x="320" y="152"/>
<use xlink:href="#p" x="320" y="168"/>
<use xlink:href="#p" x="320" y="184"/>
<use xlink:href="#p" x="320" y="200"/>
<use xlink:href="#p" x="320" y="208"/>
<use xlink:href="#p" x="320" y="224"/>
<use xlink:href="#p" x="320" y="240"/>
<use xlink:href="#p" x="320" y="264"/>
<use xlink:href="#p" x="320" y="320"/>
<use xlink:href="#p" x="320" y="328"/>
<use xlink:href="#p" x="320" y="336"/>
<use xlink:href="#p" x="320" y="360"/>
<use xlink:href="#p" x="320" y="368"/>
<use xlink:href="#p" x="320" y="376"/>
<use xlink:href="#p" x="320" y="400"/>
<use xlink:href="#p" x="320" y="408"/>
<use xlink:href="#p" x="320" y="416"/>
<use xlink:href="#p" x="328" y="32"/>
<use xlink:href="#p" x="328" y="48"/>
<use xlink:href="#p" x="328" y="64"/>
<use xlink:href="#p" x="328" y="96"/>
<use xlink:href="#p" x="328" y="112"/>
<use xlink:href="#p" x="328" y="120"/>
<use xlink:href="#p" x="328" y="128"/>
<use xlink:href="#p" x="328" y="144"/>
<use xlink:href="#p" x="328" y="168"/>
<use xlink:href="#p" x="328" y="176"/>
<use xlink:href="#p" x="328" y="184"/>
<use xlink:href="#p" x="328" y="192"/>
<use xlink:href="#p" x="328" y="208"/>
<use xlink:href="#p" x="328" y="216"/>
<use xlink:href="#p" x="328" y="240"/>
<use xlink:href="#p" x="328" y="264"/>
<use xlink:href="#p" x="328" y="280"/>
<use xlink:href="#p" x="328" y="304"/>
<use xlink:href="#p" x="328" y="320"/>
<use xlink:href="#p" x="328" y="336"/>
<use xlink:href="#p" x="328" y="352"/>
<use xlink:href="#p" x="328" y="360"/>
<use xlink:href="#p" x="328" y="368"/>
<use xlink:href="#p" x="328" y="384"/>
<use xlink:href="#p" x="328" y="392"/>
<use xlink:href="#p" x="328" y="408"/>
<use xlink:href="#p" x="328" y="416"/>
<use xlink:href="#p" x="336" y="40"/>
<use xlink:href="#p" x="336" y="72"/>
<use xlink:href="#p" x="336" y="80"/>
<use xlink:href="#p" x="336" y="88"/>
<use xlink:href="#p" x="336" y="96"/>
<use xlink:href="#p" x="336" y="128"/>
<use xlink:href="#p" x="336" y="136"/>
<use xlink:href="#p" x="336" y="144"/>
<use xlink:href="#p" x="336" y="160"/>
<use xlink:href="#p" x="336" y="176"/>
<use xlink:href="#p" x="336" y="192"/>
<use xlink:href="#p" x="336" y="216"/>
<use xlink:href="#p" x="336" y="232"/>
<use xlink:href="#p" x="336" y="240"/>
<use xlink:href="#p" x="336" y="256"/>
<use xlink:href="#p" x="336" y="312"/>
<use xlink:href="#p" x="336" y="328"/>
<use xlink:href="#p" x="336" y="344"/>
<use xlink:href="#p" x="336" y="352"/>
<use xlink:href="#p" x="336" y="368"/>
<use xlink:href="#p" x="336" y="384"/>
<use xlink:href="#p" x="336" y="400"/>
<use xlink:href="#p" x="344" y="40"/>
<use xlink:href="#p" x="344" y="48"/>
<use xlink:href="#p" x="344" y="56"/>
<use xlink:href="#p" x="344" y="96"/>
<use xlink:href="#p" x="344" y="104"/>
<use xlink:href="#p" x="344" y="160"/>
<use xlink:href="#p" x="344" y="208"/>
<use xlink:href="#p" x="344" y="216"/>
<use xlink:href="#p" x="344" y="232"/>
<use xlink:href="#p" x="344" y="240"/>
<use xlink:href="#p" x="344" y="272"/>
<use xlink:href="#p" x="344" y="296"/>
<use xlink:href="#p" x="344" y="304"/>
<use xlink:href="#p" x="344" y="312"/>
<use xlink:href="#p" x="344" y="320"/>
<use xlink:href="#p" x="344" y="336"/>
<use xlink:href="#p" x="344" y="344"/>
<use xlink:href="#p" x="344" y="360"/>
<use xlink:href="#p" x="344" y="392"/>
<use xlink:href="#p" x="352" y="32"/>
<use xlink:href="#p" x="352" y="40"/>
<use xlink:href="#p" x="352" y="48"/>
<use xlink:href="#p" x="352" y="80"/>
<use xlink:href="#p" x="352" y="88"/>
<use xlink:href="#p" x="352" y="128"/>
<use xlink:href="#p" x="352" y="152"/>
<use xlink:href="#p" x="352" y="160"/>
<use xlink:href="#p" x="352" y="168"/>
<use xlink:href="#p" x="352" y="184"/>
<use xlink:href="#p" x="352" y="192"/>
<use xlink:href="#p" x="352" y="208"/>
<use xlink:href="#p" x="352" y="216"/>
<use xlink:href="#p" x="352" y="224"/>
<use xlink:href="#p" x="352" y="232"/>
<use xlink:href="#p" x="352" y="240"/>
<use xlink:href="#p" x="352" y="264"/>
<use xlink:href="#p" x="352" y="280"/>
<use xlink:href="#p" x="352" y="312"/>
<use xlink:href="#p" x="352" y="320"/>
<use xlink:href="#p" x="352" y="336"/>
<use xlink:href="#p" x="352" y="344"/>
<use xlink:href="#p" x="352" y="352"/>
<use xlink:href="#p" x="352" y="360"/>
<use xlink:href="#p" x="352" y="368"/>
<use xlink:href="#p" x="352" y="376"/>
<use xlink:href="#p" x="352" y="384"/>
<use xlink:href="#p" x="352" y="392"/>
<use xlink:href="#p" x="360" y="96"/>
<use xlink:href="#p" x="360" y="112"/>
<use xlink:href="#p" x="360" y="144"/>
<use xlink:href="#p" x="360" y="160"/>
<use xlink:href="#p" x="360" y="200"/>
<use xlink:href="#p" x="360" y="208"/>
<use xlink:href="#p" x="360" y="240"/>
<use xlink:href="#p" x="360" y="256"/>
<use xlink:href="#p" x="360" y="288"/>
<use xlink:href="#p" x="360" y="296"/>
<use xlink:href="#p" x="360" y="312"/>
<use xlink:href="#p" x="360" y="344"/>
<use xlink:href="#p" x="360" y="352"/>
<use xlink:href="#p" x="360" y="384"/>
<use xlink:href="#p" x="360" y="400"/>
<use xlink:href="#p" x="360" y="408"/>
<use xlink:href="#p" x="360" y="416"/>
<use xlink:href="#p" x="368" y="32"/>
<use xlink:href="#p" x="368" y="40"/>
<use xlink:href="#p" x="368" y="48"/>
<use xlink:href="#p" x="368" y="56"/>
<use xlink:href="#p" x="368" y="64"/>
<use xlink:href="#p" x="368" y="72"/>
<use xlink:href="#p" x="368" y="80"/>
<use xlink:href="#p" x="368" y="104"/>
<use xlink:href="#p" x="368" y="112"/>
<use xlink:href="#p" x="368" y="120"/>
<use xlink:href="#p" x="368" y="152"/>
<use xlink:href="#p" x="368" y="192"/>
<use xlink:href="#p" x="368" y="200"/>
<use xlink:href="#p" x="368" y="208"/>
<use xlink:href="#p" x="368" y="224"/>
<use xlink:href="#p" x="368" y="240"/>
<use xlink:href="#p" x="368" y="248"/>
<use xlink:href="#p" x="368" y="256"/>
<use xlink:href="#p" x="368" y="272"/>
<use xlink:href="#p" x="368" y="280"/>
<use xlink:href="#p" x="368" y="296"/>
<use xlink:href="#p" x="368" y="320"/>
<use xlink:href="#p" x="368" y="352"/>
<use xlink:href="#p" x="368" y="368"/>
<use xlink:href="#p" x="368" y="384"/>
<use xlink:href="#p" x="368" y="392"/>
<use xlink:href="#p" x="368" y="400"/>
<use xlink:href="#p" x="368" y="416"/>
<use xlink:href="#p" x="376" y="32"/>
<use xlink:href="#p" x="376" y="80"/>
<use xlink:href="#p" x="376" y="104"/>
<use xlink:href="#p" x="376" y="112"/>
<use xlink:href="#p" x="376" y="120"/>
<use xlink:href="#p" x="376" y="136"/>
<use xlink:href="#p" x="376" y="152"/>
<use xlink:href="#p" x="376" y="176"/>
<use xlink:href="#p" x="376" y="192"/>
<use xlink:href="#p" x="376" y="208"/>
<use xlink:href="#p" x="376" y="240"/>
<use xlink:href="#p" x="376" y="248"/>
<use xlink:href="#p" x="376" y="256"/>
<use xlink:href="#p" x="376" y="264"/>
<use xlink:href="#p" x="376" y="272"/>
<use xlink:href="#p" x="376" y="288"/>
<use xlink:href="#p" x="376" y="296"/>
<use xlink:href="#p" x="376" y="312"/>
<use xlink:href="#p" x="376" y="336"/>
<use xlink:href="#p" x="376" y="352"/>
<use xlink:href="#p" x="376" y="384"/>
<use xlink:href="#p" x="376" y="392"/>
<use xlink:href="#p" x="376" y="400"/>
<use xlink:href="#p" x="384" y="32"/>
<use xlink:href="#p" x="384" y="48"/>
<use xlink:href="#p" x="384" y="56"/>
<use xlink:href="#p" x="384" y="64"/>
<use xlink:href="#p" x="384" y="80"/>
<use xlink:href="#p" x="384" y="96"/>
<use xlink:href="#p" x="384" y="112"/>
<use xlink:href="#p" x="384" y="136"/>
<use xlink:href="#p" x="384" y="144"/>
<use xlink:href="#p" x="384" y="152"/>
<use xlink:href="#p" x="384" y="160"/>
<use xlink:href="#p" x="384" y="184"/>
<use xlink:href="#p" x="384" y="208"/>
<use xlink:href="#p" x="384" y="216"/>
<use xlink:href="#p" x="384" y="224"/>
<use xlink:href="#p" x="384" y="232"/>
<use xlink:href="#p" x="384" y="240"/>
<use xlink:href="#p" x="384" y="272"/>
<use xlink:href="#p" x="384" y="320"/>
<use xlink:href="#p" x="384" y="328"/>
<use xlink:href="#p" x="384" y="336"/>
<use xlink:href="#p" x="384" y="344"/>
<use xlink:href="#p" x="384" y="352"/>
<use xlink:href="#p" x="384" y="360"/>
<use xlink:href="#p" x="384" y="368"/>
<use xlink:href="#p" x="384" y="376"/>
<use xlink:href="#p" x="384" y="384"/>
<use xlink:href="#p" x="384" y="400"/>
<use xlink:href="#p" x="392" y="32"/>
<use xlink:href="#p" x="392" y="48"/>
<use xlink:href="#p" x="392" y="56"/>
<use xlink:href="#p" x="392" y="64"/>
<use xlink:href="#p" x="392" y="80"/>
<use xlink:href="#p" x="392" y="96"/>
<use xlink:href="#p" x="392" y="104"/>
<use xlink:href="#p" x="392" y="112"/>
<use xlink:href="#p" x="392" y="120"/>
<use xlink:href="#p" x="392" y="128"/>
<use xlink:href="#p" x="392" y="136"/>
<use xlink:href="#p" x="392" y="144"/>
<use xlink:href="#p" x="392" y="160"/>
<use xlink:href="#p" x="392" y="168"/>
<use xlink:href="#p" x="392" y="176"/>
<use xlink:href="#p" x="392" y="192"/>
<use xlink:href="#p" x="392" y="208"/>
<use xlink:href="#p" x="392" y="216"/>
<use xlink:href="#p" x="392" y="224"/>
<use xlink:href="#p" x="392" y="256"/>
<use xlink:href="#p" x="392" y="264"/>
<use xlink:href="#p" x="392" y="280"/>
<use xlink:href="#p" x="392" y="288"/>
<use xlink:href="#p" x="392" y="312"/>
<use xlink:href="#p" x="392" y="320"/>
<use xlink:href="#p" x="392" y="376"/>
<use xlink:href="#p" x="392" y="392"/>
<use xlink:href="#p" x="392" y="400"/>
<use xlink:href="#p" x="400" y="32"/>
<use xlink:href="#p" x="400" y="48"/>
<use xlink:href="#p" x="400" y="56"/>
<use xlink:href="#p" x="400" y="64"/>
<use xlink:href="#p" x="400" y="80"/>
<use xlink:href="#p" x="400" y="96"/>
<use xlink:href="#p" x="400" y="104"/>
<use xlink:href="#p" x="400" y="120"/>
<use xlink:href="#p" x="400" y="136"/>
<use xlink:href="#p" x="400" y="144"/>
<use xlink:href="#p" x="400" y="176"/>
<use xlink:href="#p" x="400" y="208"/>
<use xlink:href="#p" x="400" y="216"/>
<use xlink:href="#p" x="400" y="232"/>
<use xlink:href="#p" x="400" y="272"/>
<use xlink:href="#p" x="400" y="288"/>
<use xlink:href="#p" x="400" y="304"/>
<use xlink:href="#p" x="400" y="312"/>
<use xlink:href="#p" x="400" y="360"/>
<use xlink:href="#p" x="400" y="368"/>
<use xlink:href="#p" x="400" y="384"/>
<use xlink:href="#p" x="400" y="392"/>
<use xlink:href="#p" x="400" y="400"/>
<use xlink:href="#p" x="400" y="408"/>
<use xlink:href="#p" x="400" y="416"/>
<use xlink:href="#p" x="408" y="32"/>
<use xlink:href="#p" x="408" y="80"/>
<use xlink:href="#p" x="408" y="104"/>
<use xlink:href="#p" x="408" y="112"/>
<use xlink:href="#p" x="408" y="120"/>
<use xlink:href="#p" x="408" y="128"/>
<use xlink:href="#p" x="408" y="136"/>
<use xlink:href="#p" x="408" y="144"/>
<use xlink:href="#p" x="408" y="152"/>
<use xlink:href="#p" x="408" y="176"/>
<use xlink:href="#p" x="408" y="184"/>
<use xlink:href="#p" x="408" y="216"/>
<use xlink:href="#p" x="408" y="224"/>
<use xlink:href="#p" x="408" y="240"/>
<use xlink:href="#p" x="408" y="248"/>
<use xlink:href="#p" x="408" y="256"/>
<use xlink:href="#p" x="408" y="272"/>
<use xlink:href="#p" x="408" y="280"/>
<use xlink:href="#p" x="408" y="296"/>
<use xlink:href="#p" x="408" y="320"/>
<use xlink:href="#p" x="408" y="328"/>
<use xlink:href="#p" x="408" y="336"/>
<use xlink:href="#p" x="408" y="352"/>
<use xlink:href="#p" x="408" y="360"/>
<use xlink:href="#p" x="408" y="368"/>
<use xlink:href="#p" x="408" y="400"/>
<use xlink:href="#p" x="408" y="416"/>
<use xlink:href="#p" x="416" y="32"/>
<use xlink:href="#p" x="416" y="40"/>
<use xlink:href="#p" x="416" y="48"/>
<use xlink:href="#p" x="416" y="56"/>
<use xlink:href="#p" x="416" y="64"/>
<use xlink:href="#p" x="416" y="72"/>
<use xlink:href="#p" x="416" y="80"/>
<use xlink:href="#p" x="416" y="96"/>
<use xlink:href="#p" x="416" y="128"/>
<use xlink:href="#p" x="416" y="176"/>
<use xlink:href="#p" x="416" y="200"/>
<use xlink:href="#p" x="416" y="224"/>
<use xlink:href="#p" x="416" y="248"/>
<use xlink:href="#p" x="416" y="256"/>
<use xlink:href="#p" x="416" y="272"/>
<use xlink:href="#p" x="416" y="280"/>
<use xlink:href="#p" x="416" y="296"/>
<use xlink:href="#p" x="416" y="320"/>
<use xlink:href="#p" x="416" y="352"/>
<use xlink:href="#p" x="416" y="368"/>
<use xlink:href="#p" x="416" y="376"/>
<use xlink:href="#p" x="416" y="384"/>
<use xlink:href="#p" x="416" y="400"/>
<use xlink:href="#p" x="416" y="416"/>
</g>
</svg>